<svg width="21" height="20" viewBox="0 0 21 20" fill="none" xmlns="http://www.w3.org/2000/svg">
<path d="M16 0.5H2C1.44772 0.5 1 0.947715 1 1.5V18.5C1 19.0523 1.44771 19.5 2 19.5H19C19.5523 19.5 20 19.0523 20 18.5V4.5M16 0.5L20 4.5M16 0.5V3.5C16 4.05228 16.4477 4.5 17 4.5H20" stroke="#FFFFFF"/>
<path d="M5.98 9.976C5.9 9.976 5.83333 9.94933 5.78 9.896C5.732 9.84267 5.708 9.77867 5.708 9.704V8.904L5.852 9.04C5.47867 9.03467 5.13733 8.984 4.828 8.888C4.51867 8.78667 4.25733 8.65867 4.044 8.504C3.98533 8.46133 3.94267 8.41067 3.916 8.352C3.89467 8.288 3.88933 8.22667 3.9 8.168C3.916 8.10933 3.94267 8.05867 3.98 8.016C4.02267 7.97333 4.07333 7.94933 4.132 7.944C4.19067 7.93333 4.25733 7.952 4.332 8C4.508 8.12267 4.72133 8.22933 4.972 8.32C5.22267 8.41067 5.53467 8.456 5.908 8.456C6.21733 8.456 6.47067 8.416 6.668 8.336C6.86533 8.256 7.012 8.144 7.108 8C7.204 7.856 7.252 7.688 7.252 7.496C7.252 7.34667 7.21733 7.216 7.148 7.104C7.07867 6.992 6.96933 6.896 6.82 6.816C6.67067 6.736 6.47067 6.66933 6.22 6.616L5.42 6.448C4.93467 6.34133 4.57467 6.168 4.34 5.928C4.10533 5.68267 3.988 5.36267 3.988 4.968C3.988 4.65867 4.06267 4.384 4.212 4.144C4.36667 3.89867 4.58 3.70667 4.852 3.568C5.124 3.424 5.44133 3.344 5.804 3.328L5.708 3.44V2.656C5.708 2.58133 5.732 2.51733 5.78 2.464C5.83333 2.41067 5.9 2.384 5.98 2.384C6.05467 2.384 6.11867 2.41067 6.172 2.464C6.22533 2.51733 6.252 2.58133 6.252 2.656V3.44L6.148 3.328C6.39867 3.33333 6.66267 3.38667 6.94 3.488C7.22267 3.58933 7.46267 3.73333 7.66 3.92C7.71333 3.968 7.74533 4.02133 7.756 4.08C7.772 4.13333 7.76933 4.18667 7.748 4.24C7.732 4.288 7.70267 4.33067 7.66 4.368C7.62267 4.4 7.572 4.41867 7.508 4.424C7.44933 4.424 7.38533 4.4 7.316 4.352C7.14 4.208 6.94267 4.09867 6.724 4.024C6.51067 3.944 6.252 3.904 5.948 3.904C5.548 3.904 5.228 4 4.988 4.192C4.75333 4.384 4.636 4.63733 4.636 4.952C4.636 5.19733 4.71067 5.39467 4.86 5.544C5.00933 5.688 5.252 5.79467 5.588 5.864L6.396 6.04C6.91867 6.152 7.30267 6.32267 7.548 6.552C7.79333 6.776 7.916 7.08 7.916 7.464C7.916 7.768 7.83867 8.03467 7.684 8.264C7.52933 8.488 7.31867 8.66667 7.052 8.8C6.78533 8.928 6.476 9.00533 6.124 9.032L6.252 8.896V9.704C6.252 9.77867 6.22533 9.84267 6.172 9.896C6.124 9.94933 6.06 9.976 5.98 9.976Z" fill="#FFFFFF"/>
<line x1="10" y1="9.5" x2="17" y2="9.5" stroke="#FFFFFF" stroke-linecap="round"/>
<line x1="10" y1="7.5" x2="17" y2="7.5" stroke="#FFFFFF" stroke-linecap="round"/>
<line x1="4" y1="17.5" x2="17" y2="17.5" stroke="#FFFFFF" stroke-linecap="round"/>
<line x1="4" y1="15.5" x2="17" y2="15.5" stroke="#FFFFFF" stroke-linecap="round"/>
<line x1="4" y1="13.5" x2="17" y2="13.5" stroke="#FFFFFF" stroke-linecap="round"/>
</svg>
