<svg width="21" height="21" viewBox="0 0 21 21" fill="none" xmlns="http://www.w3.org/2000/svg">
<path d="M10.71 18.202C10.5393 18.202 10.3953 18.1433 10.278 18.026C10.1607 17.9087 10.102 17.7647 10.102 17.594V16.042L10.406 16.33C9.65933 16.3193 8.982 16.218 8.374 16.026C7.766 15.834 7.25933 15.594 6.854 15.306C6.71533 15.21 6.61933 15.098 6.566 14.97C6.51267 14.8313 6.49667 14.698 6.518 14.57C6.53933 14.4313 6.59267 14.314 6.678 14.218C6.774 14.122 6.886 14.0633 7.014 14.042C7.142 14.0207 7.29133 14.0633 7.462 14.17C7.80333 14.4047 8.21933 14.6127 8.71 14.794C9.21133 14.9647 9.83 15.05 10.566 15.05C11.1527 15.05 11.638 14.9753 12.022 14.826C12.406 14.666 12.6887 14.4473 12.87 14.17C13.062 13.8927 13.158 13.578 13.158 13.226C13.158 12.9273 13.0887 12.6713 12.95 12.458C12.822 12.2447 12.614 12.0633 12.326 11.914C12.038 11.7647 11.654 11.642 11.174 11.546L9.542 11.194C8.582 10.9807 7.862 10.634 7.382 10.154C6.91267 9.66333 6.678 9.018 6.678 8.218C6.678 7.59933 6.82733 7.04467 7.126 6.554C7.43533 6.06333 7.862 5.674 8.406 5.386C8.96067 5.098 9.60067 4.938 10.326 4.906L10.102 5.13V3.626C10.102 3.45533 10.1607 3.31133 10.278 3.194C10.3953 3.07667 10.5393 3.018 10.71 3.018C10.8807 3.018 11.0247 3.07667 11.142 3.194C11.2593 3.31133 11.318 3.45533 11.318 3.626V5.13L11.062 4.906C11.5633 4.91667 12.0913 5.02333 12.646 5.226C13.2007 5.418 13.6753 5.69 14.07 6.042C14.1873 6.138 14.262 6.25 14.294 6.378C14.3367 6.506 14.3367 6.62867 14.294 6.746C14.262 6.86333 14.198 6.95933 14.102 7.034C14.0167 7.10867 13.9047 7.15133 13.766 7.162C13.638 7.162 13.494 7.10867 13.334 7.002C12.982 6.746 12.5927 6.54333 12.166 6.394C11.75 6.24467 11.2487 6.17 10.662 6.17C9.894 6.17 9.28067 6.35667 8.822 6.73C8.374 7.09267 8.15 7.57267 8.15 8.17C8.15 8.63933 8.28867 9.01267 8.566 9.29C8.854 9.55667 9.318 9.75933 9.958 9.898L11.622 10.266C12.646 10.4793 13.4033 10.8207 13.894 11.29C14.3847 11.7487 14.63 12.3673 14.63 13.146C14.63 13.754 14.4753 14.2873 14.166 14.746C13.8673 15.2047 13.446 15.5673 12.902 15.834C12.3687 16.1007 11.75 16.2607 11.046 16.314L11.318 16.026V17.594C11.318 17.7647 11.2593 17.9087 11.142 18.026C11.0353 18.1433 10.8913 18.202 10.71 18.202Z" fill="#6851AC"/>
<circle cx="10.5" cy="10.5" r="10" stroke="#6851AC"/>
</svg>
