<svg width="24" height="24" viewBox="0 0 24 24" fill="none" xmlns="http://www.w3.org/2000/svg">
<path d="M12 0C9.62663 0 7.30655 0.703788 5.33316 2.02236C3.35977 3.34094 1.8217 5.21508 0.913451 7.4078C0.00519943 9.60051 -0.232441 12.0133 0.230582 14.3411C0.693605 16.6689 1.83649 18.807 3.51472 20.4853C5.19295 22.1635 7.33115 23.3064 9.65892 23.7694C11.9867 24.2324 14.3995 23.9948 16.5922 23.0865C18.7849 22.1783 20.6591 20.6402 21.9776 18.6668C23.2962 16.6934 24 14.3734 24 12C24 10.4241 23.6896 8.8637 23.0866 7.4078C22.4835 5.95189 21.5996 4.62902 20.4853 3.51472C19.371 2.40041 18.0481 1.5165 16.5922 0.913445C15.1363 0.310389 13.5759 0 12 0ZM17.16 9.132L11.676 16.332C11.5642 16.4772 11.4206 16.5949 11.2563 16.676C11.092 16.7571 10.9113 16.7996 10.728 16.8C10.5457 16.801 10.3656 16.7604 10.2014 16.6814C10.0371 16.6024 9.89301 16.487 9.78 16.344L6.852 12.612C6.75509 12.4875 6.68364 12.3451 6.64175 12.193C6.59985 12.0409 6.58832 11.8821 6.60782 11.7255C6.62732 11.5689 6.67747 11.4178 6.7554 11.2806C6.83333 11.1434 6.93751 11.0229 7.062 10.926C7.31343 10.7303 7.63231 10.6424 7.9485 10.6818C8.10506 10.7013 8.25624 10.7515 8.39342 10.8294C8.5306 10.9073 8.65109 11.0115 8.748 11.136L10.704 13.632L15.24 7.632C15.3361 7.50593 15.4561 7.40003 15.5932 7.32034C15.7303 7.24066 15.8817 7.18875 16.0388 7.16757C16.1959 7.1464 16.3556 7.15638 16.5089 7.19695C16.6622 7.23752 16.8059 7.30787 16.932 7.404C17.0581 7.50013 17.164 7.62014 17.2437 7.7572C17.3233 7.89425 17.3753 8.04566 17.3964 8.20278C17.4176 8.35989 17.4076 8.51964 17.3671 8.6729C17.3265 8.82616 17.2561 8.96993 17.16 9.096V9.132Z" fill="#6851AC"/>
</svg>
