<svg width="20" height="20" viewBox="0 0 20 20" fill="none" xmlns="http://www.w3.org/2000/svg">
<path d="M18.9763 7.90056L17.5725 7.66242C17.4263 7.19031 17.2383 6.73491 17.0085 6.3004L17.8357 5.1431C18.1866 4.65009 18.1323 3.97744 17.702 3.55129L16.457 2.30625C16.223 2.07228 15.9138 1.94276 15.5838 1.94276C15.3247 1.94276 15.0782 2.02214 14.8693 2.17255L13.7079 2.99979C13.2567 2.76165 12.7845 2.56528 12.2957 2.41905L12.0618 1.03196C11.9615 0.43451 11.4476 0 10.8418 0H9.08288C8.47707 0 7.96319 0.43451 7.86292 1.03196L7.62059 2.45248C7.15266 2.59871 6.69726 2.79089 6.26276 3.02486L5.11382 2.19762C4.90492 2.04721 4.65424 1.96783 4.39521 1.96783C4.06515 1.96783 3.75181 2.09735 3.52202 2.33131L2.27281 3.57635C1.84666 4.00251 1.78817 4.67516 2.13911 5.16816L2.97471 6.34218C2.74492 6.78086 2.56109 7.23627 2.41904 7.70838L1.03196 7.94234C0.434508 8.04262 0 8.55651 0 9.16231V10.9212C0 11.5271 0.434508 12.0409 1.03196 12.1412L2.45246 12.3835C2.59869 12.8515 2.79088 13.3069 3.02484 13.7414L2.20178 14.8862C1.85083 15.3792 1.90515 16.0518 2.33548 16.478L3.58051 17.723C3.81447 17.957 4.12364 18.0865 4.4537 18.0865C4.71274 18.0865 4.95923 18.0071 5.16813 17.8567L6.34214 17.0211C6.76411 17.2425 7.20698 17.4222 7.66237 17.5642L7.89634 18.968C7.99661 19.5655 8.5105 20 9.1163 20H10.8794C11.4852 20 11.9991 19.5655 12.0994 18.968L12.3375 17.5642C12.8096 17.418 13.265 17.23 13.6995 17.0002L14.8568 17.8274C15.0657 17.9779 15.3164 18.0572 15.5754 18.0572C15.9055 18.0572 16.2147 17.9277 16.4486 17.6938L17.6936 16.4487C18.1198 16.0226 18.1783 15.3499 17.8273 14.8569L17.0001 13.6954C17.2299 13.2567 17.4221 12.8013 17.5641 12.3334L18.9679 12.0994C19.5654 11.9992 19.9999 11.4853 19.9999 10.8795V9.12053C20.0082 8.51473 19.5737 8.00084 18.9763 7.90056ZM18.8802 10.8795C18.8802 10.9338 18.8426 10.9797 18.7883 10.9881L17.0335 11.2806C16.8121 11.3182 16.6366 11.4811 16.5823 11.6942C16.4235 12.3083 16.1812 12.8974 15.8553 13.4447C15.7425 13.6369 15.7509 13.8751 15.8804 14.0589L16.9124 15.5128C16.9416 15.5546 16.9374 15.6173 16.8998 15.6549L15.6548 16.8999C15.6256 16.9292 15.5963 16.9334 15.5754 16.9334C15.5504 16.9334 15.5295 16.925 15.5128 16.9125L14.063 15.8805C13.8834 15.751 13.641 15.7426 13.4488 15.8554C12.9015 16.1813 12.3124 16.4236 11.6983 16.5824C11.481 16.6367 11.3181 16.8164 11.2847 17.0336L10.988 18.7884C10.9797 18.8427 10.9337 18.8803 10.8794 18.8803H9.12048C9.06617 18.8803 9.02021 18.8427 9.01185 18.7884L8.7194 17.0336C8.68179 16.8122 8.51885 16.6367 8.30578 16.5824C7.70833 16.4278 7.13177 16.1897 6.59282 15.8805C6.50508 15.8304 6.40481 15.8053 6.30872 15.8053C6.19591 15.8053 6.07893 15.8387 5.98283 15.9098L4.52055 16.9501C4.49966 16.9626 4.47877 16.971 4.45788 16.971C4.44117 16.971 4.40774 16.9668 4.3785 16.9375L3.13347 15.6925C3.09587 15.6549 3.09169 15.5964 3.12093 15.5504L4.14871 14.109C4.27823 13.9252 4.28658 13.6829 4.17378 13.4907C3.8479 12.9476 3.59722 12.3585 3.43846 11.7443C3.37997 11.5312 3.20449 11.3683 2.98724 11.3307L1.21996 11.0299C1.16565 11.0215 1.12805 10.9756 1.12805 10.9212V9.16231C1.12805 9.108 1.16565 9.06204 1.21996 9.05369L2.96217 8.76123C3.1836 8.72363 3.36326 8.56069 3.41757 8.34343C3.57215 7.72927 3.8103 7.13599 4.132 6.58868C4.2448 6.39649 4.23227 6.15835 4.10275 5.97869L3.06244 4.5164C3.0332 4.47462 3.03737 4.41195 3.07498 4.37435L4.32001 3.12931C4.34925 3.10006 4.3785 3.09588 4.39939 3.09588C4.42446 3.09588 4.44535 3.10424 4.46206 3.11677L5.90345 4.14456C6.08728 4.27408 6.32961 4.28243 6.52179 4.16963C7.06493 3.84374 7.65402 3.59306 8.26818 3.4343C8.48125 3.37581 8.64419 3.20033 8.6818 2.98308L8.98261 1.21579C8.99096 1.16148 9.03692 1.12388 9.09124 1.12388H10.8502C10.9045 1.12388 10.9504 1.16148 10.9588 1.21579L11.2512 2.95801C11.2888 3.17944 11.4518 3.3591 11.669 3.41341C12.2999 3.57217 12.9015 3.81868 13.4614 4.14874C13.6536 4.26154 13.8917 4.25319 14.0755 4.12367L15.5169 3.08753C15.5378 3.075 15.5587 3.06664 15.5796 3.06664C15.5963 3.06664 15.6297 3.07082 15.659 3.10006L16.904 4.3451C16.9416 4.3827 16.9458 4.4412 16.9165 4.48715L15.8846 5.93691C15.7551 6.11657 15.7467 6.35889 15.8595 6.55108C16.1854 7.09839 16.4277 7.68749 16.5865 8.30165C16.6408 8.51891 16.8205 8.68185 17.0377 8.71527L18.7924 9.01191C18.8468 9.02026 18.8844 9.06622 18.8844 9.12053V10.8795H18.8802Z" fill="#B9B2C6"/>
<path d="M10.002 5.68205C7.6206 5.68205 5.68621 7.61646 5.68621 9.99791C5.68621 12.3794 7.6206 14.3138 10.002 14.3138C12.3835 14.3138 14.3179 12.3794 14.3179 9.99791C14.3179 7.61646 12.3835 5.68205 10.002 5.68205ZM10.002 13.1857C8.24312 13.1857 6.81426 11.7568 6.81426 9.99791C6.81426 8.23898 8.24312 6.81011 10.002 6.81011C11.761 6.81011 13.1898 8.23898 13.1898 9.99791C13.1898 11.7568 11.761 13.1857 10.002 13.1857Z" fill="#B9B2C6"/>
</svg>
