<svg width="25" height="24" viewBox="0 0 25 24" fill="none" xmlns="http://www.w3.org/2000/svg">
<path d="M16.7035 6.18561C16.7035 9.04955 14.125 11.3712 10.9442 11.3712C7.76352 11.3712 5.18503 9.04955 5.18503 6.18561C5.18503 3.32168 7.76352 1 10.9442 1C14.125 1 16.7035 3.32168 16.7035 6.18561Z" fill="#6851AC"/>
<path d="M16.7035 6.18561C16.7035 9.04955 14.125 11.3712 10.9442 11.3712C7.76352 11.3712 5.18503 9.04955 5.18503 6.18561C5.18503 3.32168 7.76352 1 10.9442 1C14.125 1 16.7035 3.32168 16.7035 6.18561Z" stroke="white"/>
<path d="M7.5847 13.5319C3.36892 14.0077 1.81405 15.2027 1.01754 18.8145C0.921766 19.2488 1.22769 19.67 1.70394 19.7803C8.66093 21.3913 12.983 21.4316 20.3 19.751C20.7255 19.6533 21.0238 19.3041 20.9985 18.9094C20.8051 15.892 19.4594 14.6624 15.3981 13.5678C15.3102 13.5441 15.2171 13.5319 15.1254 13.5319H7.5847Z" stroke="white"/>
<circle cx="19.5" cy="18.5" r="5.5" fill="white"/>
<line x1="19.5" y1="15.5" x2="19.5" y2="21.5" stroke="#6851AC" stroke-linecap="round"/>
<line x1="22.5" y1="18.5" x2="16.5" y2="18.5" stroke="#6851AC" stroke-linecap="round"/>
</svg>
