<svg width="61" height="61" viewBox="0 0 61 61" fill="none" xmlns="http://www.w3.org/2000/svg">
<path d="M56.5 0.895264C58.7091 0.895264 60.5 2.68612 60.5 4.89526V60.8953L0.5 0.895264H56.5Z" fill="#6851AC"/>
<path d="M41.0489 10.927C41.3483 10.0057 42.6517 10.0057 42.9511 10.9271L44.0206 14.2188C44.1545 14.6309 44.5385 14.9098 44.9717 14.9098H48.4329C49.4016 14.9098 49.8044 16.1494 49.0207 16.7188L46.2205 18.7533C45.87 19.0079 45.7234 19.4593 45.8572 19.8713L46.9268 23.1631C47.2261 24.0844 46.1717 24.8506 45.388 24.2812L42.5878 22.2467C42.2373 21.9921 41.7627 21.9921 41.4122 22.2467L38.612 24.2812C37.8283 24.8506 36.7739 24.0844 37.0732 23.1631L38.1428 19.8713C38.2766 19.4593 38.13 19.0079 37.7795 18.7533L34.9793 16.7188C34.1956 16.1494 34.5984 14.9098 35.5671 14.9098H39.0283C39.4615 14.9098 39.8455 14.6309 39.9794 14.2188L41.0489 10.927Z" fill="#FFB800"/>
</svg>
