<svg width="25" height="25" viewBox="0 0 25 25" fill="none" xmlns="http://www.w3.org/2000/svg">
<path d="M10.625 23.125V19.6875C10.625 19.5 10.75 19.375 10.9375 19.375C11.125 19.375 11.25 19.5 11.25 19.6875V23.125H12.5V19.0625C12.5 18.875 12.625 18.75 12.8125 18.75C13 18.75 13.125 18.875 13.125 19.0625V23.125H14.375V19.6875C14.375 19.5 14.5 19.375 14.6875 19.375C14.875 19.375 15 19.5 15 19.6875V23.125H16.125C16.25 22.9375 16.25 22.75 16.25 22.4375V20C16.25 18.625 15.0625 16.75 13.5625 16.75H12C10.5625 16.75 9.3125 18.6875 9.3125 20V22.4375C9.3125 22.6875 9.375 22.9375 9.4375 23.125H10.625ZM22.5625 14C22.5625 14 21.75 13.75 21.0625 13.75H21C20.3125 13.75 19.1875 13.9375 19.1875 13.9375C19.125 13.9375 19.125 13.9375 19.125 13.875C19.125 13.8125 19.125 13.8125 19.1875 13.8125C19.25 13.8125 20.4375 13.625 21.125 13.625C21.8125 13.625 22.625 13.875 22.6875 13.875C22.75 13.875 22.75 13.9375 22.75 14C22.625 13.9375 22.625 14 22.5625 14ZM22.375 14.5C22.375 14.5 21.5 14.25 20.75 14.25C20.1875 14.25 18.875 14.375 18.8125 14.375C18.75 14.375 18.75 14.375 18.75 14.3125C18.75 14.25 18.75 14.25 18.8125 14.25C18.875 14.25 20.1875 14.125 20.75 14.125C21.5625 14.125 22.375 14.375 22.375 14.375C22.4375 14.375 22.4375 14.4375 22.4375 14.5C22.4375 14.4375 22.4375 14.5 22.375 14.5ZM2.375 14C2.3125 14 2.3125 14 2.3125 13.9375C2.3125 13.875 2.3125 13.875 2.375 13.8125C2.875 13.6875 3.875 13.5 4.4375 13.5C4.9375 13.5 6.625 13.625 6.6875 13.625C6.75 13.625 6.75 13.6875 6.75 13.6875C6.75 13.75 6.6875 13.75 6.6875 13.75C6.6875 13.75 5 13.625 4.5 13.625C3.8125 13.75 2.875 13.875 2.375 14ZM2.625 14.9375C2.625 14.9375 2.5625 14.9375 2.5625 14.875C2.5625 14.8125 2.5625 14.8125 2.5625 14.75C2.625 14.75 3.4375 14.25 4.375 14.125C5.1875 14 6.875 14.1875 7 14.1875C7.0625 14.1875 7.0625 14.25 7.0625 14.25C7.0625 14.3125 7 14.3125 7 14.3125C7 14.3125 5.25 14.125 4.4375 14.25C3.5 14.4375 2.625 14.9375 2.625 14.9375Z" fill="#000"/>
<path d="M6.375 12.1875C6.375 9.4375 9.25 6.875 12.8125 6.875C16.375 6.875 19.25 9.375 19.25 12.1875C19.25 15 17.1875 16.875 12.8125 16.875C8.4375 16.875 6.375 14.9375 6.375 12.1875Z" fill="#000"/>
<path d="M15.375 7.6875C15.375 7.6875 16.4375 6.25 18.375 6.25C19.125 7 18.625 9.25 18.375 9.875L15.375 7.6875ZM10.25 7.6875C10.25 7.6875 9.18752 6.25 7.25002 6.25C6.50002 7 7.00002 9.25 7.25002 9.875L10.25 7.6875ZM10.0625 19.9375C10.0625 19.9375 8.62502 19.9375 8.31252 19.9375C7.56252 19.9375 6.87502 19.625 6.56252 19C6.18752 18.3125 5.87502 17.5625 4.93752 16.9375C4.75002 16.8125 4.87502 16.6875 5.18752 16.6875C5.50002 16.75 6.06252 16.8125 6.50002 17.375C6.93752 17.9375 7.43752 18.625 8.25002 18.625C9.06252 18.625 9.93752 18.625 10.4375 18.0625L10.0625 19.9375Z" fill="#000"/>
<path d="M12.5 0C5.625 0 0 5.625 0 12.5C0 19.375 5.625 25 12.5 25C19.375 25 25 19.375 25 12.5C25 5.625 19.375 0 12.5 0ZM12.5 22.5C7 22.5 2.5 18 2.5 12.5C2.5 7 7 2.5 12.5 2.5C18 2.5 22.5 7 22.5 12.5C22.5 18 18 22.5 12.5 22.5Z" fill="#000"/>
</svg>
