<svg width="15" height="14" viewBox="0 0 15 14" fill="none" xmlns="http://www.w3.org/2000/svg">
<path d="M15 3.66774C15.0006 3.57562 14.9816 3.4843 14.9443 3.39902C14.907 3.31374 14.852 3.23618 14.7825 3.17077L11.6025 0.202997C11.5324 0.138124 11.4493 0.0868006 11.3579 0.051968C11.2665 0.0171353 11.1687 -0.000520886 11.07 1.16991e-05C10.9713 -0.000520886 10.8734 0.0171353 10.7821 0.051968C10.6907 0.0868006 10.6076 0.138124 10.5375 0.202997L8.415 2.18385L0.217512 9.83428C0.148001 9.89968 0.0930074 9.97725 0.055684 10.0625C0.0183606 10.1478 -0.000558133 10.2391 1.25357e-05 10.3312V13.299C1.25357e-05 13.4847 0.07903 13.6627 0.219682 13.794C0.360334 13.9252 0.551099 13.999 0.750011 13.999H3.93001C4.03495 14.0043 4.13993 13.989 4.23812 13.954C4.33631 13.919 4.42554 13.8652 4.5 13.796L12.6525 6.14555L14.7825 4.1997C14.8509 4.13186 14.9067 4.05378 14.9475 3.96872C14.9547 3.91292 14.9547 3.85652 14.9475 3.80073C14.951 3.76815 14.951 3.73532 14.9475 3.70273L15 3.66774ZM3.62251 12.5991H1.50001V10.6182L8.9475 3.66774L11.07 5.64859L3.62251 12.5991ZM12.1275 4.66166L10.005 2.68081L11.07 1.69389L13.185 3.66774L12.1275 4.66166Z" fill="white"/>
</svg>
