<svg width="12" height="14" viewBox="0 0 12 14" fill="none" xmlns="http://www.w3.org/2000/svg">
<path d="M4.66667 10.457C4.84348 10.457 5.01305 10.3885 5.13807 10.2666C5.2631 10.1447 5.33333 9.9794 5.33333 9.80701V5.90701C5.33333 5.73462 5.2631 5.56929 5.13807 5.44739C5.01305 5.32549 4.84348 5.25701 4.66667 5.25701C4.48986 5.25701 4.32029 5.32549 4.19526 5.44739C4.07024 5.56929 4 5.73462 4 5.90701V9.80701C4 9.9794 4.07024 10.1447 4.19526 10.2666C4.32029 10.3885 4.48986 10.457 4.66667 10.457ZM11.3333 2.65701H8.66667V2.00701C8.66667 1.48983 8.45595 0.993845 8.08088 0.628149C7.70581 0.262453 7.1971 0.0570068 6.66667 0.0570068H5.33333C4.8029 0.0570068 4.29419 0.262453 3.91912 0.628149C3.54405 0.993845 3.33333 1.48983 3.33333 2.00701V2.65701H0.666667C0.489856 2.65701 0.320286 2.72549 0.195262 2.84739C0.0702379 2.96929 0 3.13462 0 3.30701C0 3.4794 0.0702379 3.64473 0.195262 3.76663C0.320286 3.88852 0.489856 3.95701 0.666667 3.95701H1.33333V11.107C1.33333 11.6242 1.54405 12.1202 1.91912 12.4859C2.29419 12.8516 2.8029 13.057 3.33333 13.057H8.66667C9.1971 13.057 9.70581 12.8516 10.0809 12.4859C10.456 12.1202 10.6667 11.6242 10.6667 11.107V3.95701H11.3333C11.5101 3.95701 11.6797 3.88852 11.8047 3.76663C11.9298 3.64473 12 3.4794 12 3.30701C12 3.13462 11.9298 2.96929 11.8047 2.84739C11.6797 2.72549 11.5101 2.65701 11.3333 2.65701ZM4.66667 2.00701C4.66667 1.83462 4.73691 1.66929 4.86193 1.54739C4.98695 1.42549 5.15652 1.35701 5.33333 1.35701H6.66667C6.84348 1.35701 7.01305 1.42549 7.13807 1.54739C7.2631 1.66929 7.33333 1.83462 7.33333 2.00701V2.65701H4.66667V2.00701ZM9.33333 11.107C9.33333 11.2794 9.2631 11.4447 9.13807 11.5666C9.01305 11.6885 8.84348 11.757 8.66667 11.757H3.33333C3.15652 11.757 2.98695 11.6885 2.86193 11.5666C2.7369 11.4447 2.66667 11.2794 2.66667 11.107V3.95701H9.33333V11.107ZM7.33333 10.457C7.51015 10.457 7.67971 10.3885 7.80474 10.2666C7.92976 10.1447 8 9.9794 8 9.80701V5.90701C8 5.73462 7.92976 5.56929 7.80474 5.44739C7.67971 5.32549 7.51015 5.25701 7.33333 5.25701C7.15652 5.25701 6.98695 5.32549 6.86193 5.44739C6.73691 5.56929 6.66667 5.73462 6.66667 5.90701V9.80701C6.66667 9.9794 6.73691 10.1447 6.86193 10.2666C6.98695 10.3885 7.15652 10.457 7.33333 10.457Z" fill="white"/>
</svg>
