<svg width="162" height="170" viewBox="0 0 162 170" fill="none" xmlns="http://www.w3.org/2000/svg">
<g filter="url(#filter0_d_745_2)">
<path d="M82.9922 51.1372L108.526 65.8794C109.919 66.6832 110.776 68.1688 110.776 69.7765V99.2608C110.776 100.869 109.919 102.354 108.526 103.158L82.9922 117.9C81.5999 118.704 79.8845 118.704 78.4922 117.9L52.958 103.158C51.5657 102.354 50.708 100.869 50.708 99.2608V69.7765C50.708 68.1688 51.5657 66.6832 52.958 65.8794L78.4922 51.1372C79.8845 50.3333 81.5999 50.3333 82.9922 51.1372Z" stroke="#6851AC"/>
<path d="M105.304 67.1844C106.554 67.9871 106.524 69.8236 105.248 70.5846L81.9915 84.4631C80.6457 85.2661 78.9411 84.2796 78.9669 82.7127L79.4367 54.1972C79.4625 52.6302 81.1987 51.7004 82.5173 52.5474L105.304 67.1844Z" fill="#A693DE"/>
<path d="M79.5268 52.7701C80.8923 51.9287 82.643 52.9563 82.5741 54.5588L81.3576 82.8399C81.2928 84.3464 79.6476 85.2421 78.3471 84.4788L55.4642 71.0476C54.1637 70.2843 54.1436 68.4112 55.4274 67.6201L79.5268 52.7701Z" fill="#6851AC"/>
<line x1="81.2422" y1="90.3073" x2="81.2422" y2="113.988" stroke="#6851AC" stroke-linecap="round"/>
</g>
<defs>
<filter id="filter0_d_745_2" x="0.208008" y="0.0342865" width="161.068" height="168.969" filterUnits="userSpaceOnUse" color-interpolation-filters="sRGB">
<feFlood flood-opacity="0" result="BackgroundImageFix"/>
<feColorMatrix in="SourceAlpha" type="matrix" values="0 0 0 0 0 0 0 0 0 0 0 0 0 0 0 0 0 0 127 0" result="hardAlpha"/>
<feOffset/>
<feGaussianBlur stdDeviation="25"/>
<feComposite in2="hardAlpha" operator="out"/>
<feColorMatrix type="matrix" values="0 0 0 0 0.65098 0 0 0 0 0.576471 0 0 0 0 0.870588 0 0 0 1 0"/>
<feBlend mode="normal" in2="BackgroundImageFix" result="effect1_dropShadow_745_2"/>
<feBlend mode="normal" in="SourceGraphic" in2="effect1_dropShadow_745_2" result="shape"/>
</filter>
</defs>
</svg>
