<svg width="43" height="46" viewBox="0 0 43 46" fill="none" xmlns="http://www.w3.org/2000/svg">
<path d="M19.9221 6.92833C21.3144 6.12448 23.0298 6.12448 24.4221 6.92833L36.7426 14.0416C38.1349 14.8454 38.9926 16.331 38.9926 17.9387V32.1652C38.9926 33.7729 38.1349 35.2585 36.7426 36.0623L24.4221 43.1756C23.0298 43.9794 21.3144 43.9794 19.9221 43.1756L7.60161 36.0623C6.20931 35.2585 5.35161 33.7729 5.35161 32.1652V17.9387C5.35161 16.331 6.20931 14.8454 7.60161 14.0416L19.9221 6.92833Z" stroke="#6851AC"/>
<path d="M35.5524 15.1559C36.8644 15.8894 36.9287 17.7538 35.6703 18.576L23.9314 26.2454C22.627 27.0975 20.8923 26.1971 20.8386 24.64L20.3382 10.1281C20.2845 8.57097 21.953 7.55313 23.313 8.3134L35.5524 15.1559Z" fill="#A693DE"/>
<path d="M21.0616 8.20952C22.3974 7.45792 24.0474 8.4264 24.0424 9.95908L23.9924 25.2264C23.9874 26.7695 22.3108 27.7258 20.98 26.9447L7.72434 19.1643C6.39357 18.3832 6.41118 16.4531 7.75597 15.6964L21.0616 8.20952Z" fill="#6851AC"/>
<line x1="22.6721" y1="28.5519" x2="22.6721" y2="41.5519" stroke="#6851AC" stroke-linecap="round"/>
</svg>
