        <svg width="87" height="80" viewBox="0 0 87 80" fill="none" xmlns="http://www.w3.org/2000/svg">
        <path d="M20.4221 1.92833L32.7426 9.04158C34.1349 9.84543 34.9926 11.331 34.9926 12.9387V27.1652C34.9926 28.7729 34.1349 30.2585 32.7426 31.0623L20.4221 38.1756C19.0298 38.9794 17.3144 38.9794 15.9221 38.1756L3.60155 31.0623C2.20924 30.2585 1.35155 28.7729 1.35155 27.1652V12.9387C1.35155 11.331 2.20924 9.84543 3.60155 9.04158L15.9221 1.92833C17.3144 1.12448 19.0298 1.12448 20.4221 1.92833Z" stroke="#6851AC"/>
        <path d="M31.5524 10.1559C32.8644 10.8894 32.9287 12.7538 31.6703 13.576L19.9314 21.2454C18.627 22.0975 16.8923 21.1971 16.8386 19.64L16.3382 5.12805C16.2845 3.57097 17.953 2.55313 19.313 3.3134L31.5524 10.1559Z" fill="#A693DE"/>
        <path d="M17.0617 3.20952C18.3974 2.45792 20.0474 3.42641 20.0424 4.95908L19.9925 20.2264C19.9874 21.7695 18.3109 22.7258 16.9801 21.9447L3.7244 14.1643C2.39363 13.3832 2.41124 11.4531 3.75603 10.6964L17.0617 3.20952Z" fill="#6851AC"/>
        <line x1="18.6721" y1="23.5519" x2="18.6721" y2="36.5519" stroke="#6851AC" stroke-linecap="round"/>
        </svg>