<svg width="16" height="15" viewBox="0 0 16 15" fill="none" xmlns="http://www.w3.org/2000/svg">
<path d="M15.9332 6.70701C14.3178 2.60326 11.2789 0.0570068 8 0.0570068C4.72114 0.0570068 1.6822 2.60326 0.0667645 6.70701C0.0227292 6.8174 0 6.93656 0 7.05701C0 7.17746 0.0227292 7.29661 0.0667645 7.40701C1.6822 11.5108 4.72114 14.057 8 14.057C11.2789 14.057 14.3178 11.5108 15.9332 7.40701C15.9773 7.29661 16 7.17746 16 7.05701C16 6.93656 15.9773 6.8174 15.9332 6.70701ZM8 12.307C5.46488 12.307 3.06572 10.3033 1.6822 7.05701C3.06572 3.81076 5.46488 1.80701 8 1.80701C10.5351 1.80701 12.9343 3.81076 14.3178 7.05701C12.9343 10.3033 10.5351 12.307 8 12.307ZM8 3.55701C7.36732 3.55701 6.74885 3.76228 6.22279 4.14686C5.69674 4.53145 5.28673 5.07807 5.04461 5.71761C4.8025 6.35716 4.73915 7.06089 4.86258 7.73982C4.98601 8.41876 5.29067 9.0424 5.73805 9.53188C6.18542 10.0214 6.75541 10.3547 7.37593 10.4898C7.99645 10.6248 8.63964 10.5555 9.22416 10.2906C9.80868 10.0257 10.3083 9.57707 10.6598 9.0015C11.0113 8.42593 11.1989 7.74924 11.1989 7.05701C11.1989 6.12875 10.8619 5.23851 10.262 4.58213C9.66205 3.92576 8.8484 3.55701 8 3.55701ZM8 8.80701C7.68366 8.80701 7.37442 8.70437 7.1114 8.51208C6.84837 8.31979 6.64337 8.04647 6.52231 7.7267C6.40125 7.40693 6.36958 7.05507 6.43129 6.7156C6.493 6.37613 6.64534 6.06431 6.86902 5.81957C7.09271 5.57483 7.3777 5.40816 7.68796 5.34063C7.99823 5.27311 8.31982 5.30776 8.61208 5.44022C8.90434 5.57267 9.15414 5.79697 9.32989 6.08476C9.50564 6.37255 9.59944 6.71089 9.59944 7.05701C9.59944 7.52114 9.43093 7.96625 9.13098 8.29444C8.83102 8.62263 8.4242 8.80701 8 8.80701Z" fill="white"/>
</svg>
