<svg width="18" height="18" viewBox="0 0 18 18" fill="none" xmlns="http://www.w3.org/2000/svg">
<path d="M11.625 1H2C1.44772 1 1 1.44771 1 2V14.0435C1 14.5958 1.44771 15.0435 2 15.0435H13.4583C14.0106 15.0435 14.4583 14.5958 14.4583 14.0435V3.95652M11.625 1L14.4583 3.95652M11.625 1V2.95652C11.625 3.50881 12.0727 3.95652 12.625 3.95652H14.4583" stroke="white"/>
<path d="M5.25075 10.3456C5.17075 10.3456 5.10409 10.3189 5.05075 10.2656C5.00275 10.2122 4.97875 10.1482 4.97875 10.0736V9.27357L5.12275 9.40957C4.74942 9.40423 4.40809 9.35357 4.09875 9.25757C3.78942 9.15623 3.52809 9.02823 3.31475 8.87357C3.25609 8.8309 3.21342 8.78023 3.18675 8.72157C3.16542 8.65757 3.16009 8.59623 3.17075 8.53757C3.18675 8.4789 3.21342 8.42823 3.25075 8.38557C3.29342 8.3429 3.34409 8.3189 3.40275 8.31357C3.46142 8.3029 3.52809 8.32157 3.60275 8.36957C3.77875 8.49223 3.99209 8.5989 4.24275 8.68957C4.49342 8.78023 4.80542 8.82557 5.17875 8.82557C5.48809 8.82557 5.74142 8.78557 5.93875 8.70557C6.13609 8.62557 6.28275 8.51357 6.37875 8.36957C6.47475 8.22557 6.52275 8.05757 6.52275 7.86557C6.52275 7.71623 6.48809 7.58557 6.41875 7.47357C6.34942 7.36157 6.24009 7.26557 6.09075 7.18557C5.94142 7.10557 5.74142 7.0389 5.49075 6.98557L4.69075 6.81757C4.20542 6.7109 3.84542 6.53757 3.61075 6.29757C3.37609 6.05223 3.25875 5.73223 3.25875 5.33757C3.25875 5.02823 3.33342 4.75357 3.48275 4.51357C3.63742 4.26823 3.85075 4.07623 4.12275 3.93757C4.39475 3.79357 4.71209 3.71357 5.07475 3.69757L4.97875 3.80957V3.02557C4.97875 2.9509 5.00275 2.8869 5.05075 2.83357C5.10409 2.78023 5.17075 2.75357 5.25075 2.75357C5.32542 2.75357 5.38942 2.78023 5.44275 2.83357C5.49609 2.8869 5.52275 2.9509 5.52275 3.02557V3.80957L5.41875 3.69757C5.66942 3.7029 5.93342 3.75623 6.21075 3.85757C6.49342 3.9589 6.73342 4.1029 6.93075 4.28957C6.98409 4.33757 7.01609 4.3909 7.02675 4.44957C7.04275 4.5029 7.04009 4.55623 7.01875 4.60957C7.00275 4.65757 6.97342 4.70023 6.93075 4.73757C6.89342 4.76957 6.84275 4.78823 6.77875 4.79357C6.72009 4.79357 6.65609 4.76957 6.58675 4.72157C6.41075 4.57757 6.21342 4.46823 5.99475 4.39357C5.78142 4.31357 5.52275 4.27357 5.21875 4.27357C4.81875 4.27357 4.49875 4.36957 4.25875 4.56157C4.02409 4.75357 3.90675 5.0069 3.90675 5.32157C3.90675 5.5669 3.98142 5.76423 4.13075 5.91357C4.28009 6.05757 4.52275 6.16423 4.85875 6.23357L5.66675 6.40957C6.18942 6.52157 6.57342 6.69223 6.81875 6.92157C7.06409 7.14557 7.18675 7.44957 7.18675 7.83357C7.18675 8.13757 7.10942 8.40423 6.95475 8.63357C6.80009 8.85757 6.58942 9.03623 6.32275 9.16957C6.05609 9.29757 5.74675 9.3749 5.39475 9.40157L5.52275 9.26557V10.0736C5.52275 10.1482 5.49609 10.2122 5.44275 10.2656C5.39475 10.3189 5.33075 10.3456 5.25075 10.3456Z" fill="white"/>
<line x1="7.52075" y1="7.52176" x2="12.1874" y2="7.52176" stroke="white" stroke-linecap="round"/>
<line x1="7.52075" y1="6.04346" x2="12.1874" y2="6.04346" stroke="white" stroke-linecap="round"/>
<line x1="3.27075" y1="13.4348" x2="12.1874" y2="13.4348" stroke="white" stroke-linecap="round"/>
<line x1="3.27075" y1="11.9565" x2="12.1874" y2="11.9565" stroke="white" stroke-linecap="round"/>
<line x1="3.27075" y1="10.4782" x2="12.1874" y2="10.4782" stroke="white" stroke-linecap="round"/>
<ellipse cx="14.1041" cy="13.9348" rx="3.89583" ry="4.06522" fill="white"/>
<line x1="14.25" y1="11.8478" x2="14.25" y2="16.0217" stroke="#6851AC" stroke-linecap="round"/>
<line x1="16.0833" y1="14.0652" x2="12.1249" y2="14.0652" stroke="#6851AC" stroke-linecap="round"/>
</svg>
