<svg width="25" height="24" viewBox="0 0 25 24" fill="none" xmlns="http://www.w3.org/2000/svg">
<path d="M16 1H2C1.44772 1 1 1.44771 1 2V19C1 19.5523 1.44771 20 2 20H19C19.5523 20 20 19.5523 20 19V5M16 1L20 5M16 1V4C16 4.55228 16.4477 5 17 5H20" stroke="#6851AC"/>
<path d="M5.98 10.476C5.9 10.476 5.83333 10.4493 5.78 10.396C5.732 10.3427 5.708 10.2787 5.708 10.204V9.404L5.852 9.54C5.47867 9.53467 5.13733 9.484 4.828 9.388C4.51867 9.28667 4.25733 9.15867 4.044 9.004C3.98533 8.96133 3.94267 8.91067 3.916 8.852C3.89467 8.788 3.88933 8.72667 3.9 8.668C3.916 8.60933 3.94267 8.55867 3.98 8.516C4.02267 8.47333 4.07333 8.44933 4.132 8.444C4.19067 8.43333 4.25733 8.452 4.332 8.5C4.508 8.62267 4.72133 8.72933 4.972 8.82C5.22267 8.91067 5.53467 8.956 5.908 8.956C6.21733 8.956 6.47067 8.916 6.668 8.836C6.86533 8.756 7.012 8.644 7.108 8.5C7.204 8.356 7.252 8.188 7.252 7.996C7.252 7.84667 7.21733 7.716 7.148 7.604C7.07867 7.492 6.96933 7.396 6.82 7.316C6.67067 7.236 6.47067 7.16933 6.22 7.116L5.42 6.948C4.93467 6.84133 4.57467 6.668 4.34 6.428C4.10533 6.18267 3.988 5.86267 3.988 5.468C3.988 5.15867 4.06267 4.884 4.212 4.644C4.36667 4.39867 4.58 4.20667 4.852 4.068C5.124 3.924 5.44133 3.844 5.804 3.828L5.708 3.94V3.156C5.708 3.08133 5.732 3.01733 5.78 2.964C5.83333 2.91067 5.9 2.884 5.98 2.884C6.05467 2.884 6.11867 2.91067 6.172 2.964C6.22533 3.01733 6.252 3.08133 6.252 3.156V3.94L6.148 3.828C6.39867 3.83333 6.66267 3.88667 6.94 3.988C7.22267 4.08933 7.46267 4.23333 7.66 4.42C7.71333 4.468 7.74533 4.52133 7.756 4.58C7.772 4.63333 7.76933 4.68667 7.748 4.74C7.732 4.788 7.70267 4.83067 7.66 4.868C7.62267 4.9 7.572 4.91867 7.508 4.924C7.44933 4.924 7.38533 4.9 7.316 4.852C7.14 4.708 6.94267 4.59867 6.724 4.524C6.51067 4.444 6.252 4.404 5.948 4.404C5.548 4.404 5.228 4.5 4.988 4.692C4.75333 4.884 4.636 5.13733 4.636 5.452C4.636 5.69733 4.71067 5.89467 4.86 6.044C5.00933 6.188 5.252 6.29467 5.588 6.364L6.396 6.54C6.91867 6.652 7.30267 6.82267 7.548 7.052C7.79333 7.276 7.916 7.58 7.916 7.964C7.916 8.268 7.83867 8.53467 7.684 8.764C7.52933 8.988 7.31867 9.16667 7.052 9.3C6.78533 9.428 6.476 9.50533 6.124 9.532L6.252 9.396V10.204C6.252 10.2787 6.22533 10.3427 6.172 10.396C6.124 10.4493 6.06 10.476 5.98 10.476Z" fill="#6851AC"/>
<line x1="10" y1="10" x2="17" y2="10" stroke="#6851AC" stroke-linecap="round"/>
<line x1="10" y1="8" x2="17" y2="8" stroke="#6851AC" stroke-linecap="round"/>
<line x1="4" y1="18" x2="17" y2="18" stroke="#6851AC" stroke-linecap="round"/>
<line x1="4" y1="16" x2="17" y2="16" stroke="#6851AC" stroke-linecap="round"/>
<line x1="4" y1="14" x2="17" y2="14" stroke="#6851AC" stroke-linecap="round"/>
<circle cx="19.5" cy="18.5" r="5.5" fill="#6851AC"/>
<line x1="19.5" y1="15.5" x2="19.5" y2="21.5" stroke="white" stroke-linecap="round"/>
<line x1="22.5" y1="18.5" x2="16.5" y2="18.5" stroke="white" stroke-linecap="round"/>
</svg>
