<svg width="20" height="21" viewBox="0 0 20 21" fill="000" xmlns="http://www.w3.org/2000/svg">
<path d="M19.2083 20.7943C19.1045 20.7944 19.0016 20.774 18.9057 20.7342C18.8097 20.6944 18.7226 20.6361 18.6493 20.5626L12.5654 14.4784C12.492 14.405 12.4338 14.3179 12.394 14.2219C12.3543 14.126 12.3339 14.0232 12.3339 13.9194C12.3339 13.8155 12.3543 13.7127 12.394 13.6168C12.4338 13.5209 12.492 13.4337 12.5654 13.3603C12.6388 13.2869 12.726 13.2286 12.8219 13.1889C12.9178 13.1492 13.0206 13.1287 13.1245 13.1287C13.2283 13.1287 13.3311 13.1492 13.427 13.1889C13.5229 13.2286 13.6101 13.2869 13.6835 13.3603L19.7674 19.4444C19.8783 19.5549 19.9539 19.6958 19.9846 19.8493C20.0154 20.0028 19.9998 20.162 19.9399 20.3066C19.88 20.4512 19.7785 20.5748 19.6482 20.6616C19.518 20.7484 19.3649 20.7946 19.2083 20.7943Z" fill="000"/>
<path d="M7.90726 16.6095C3.5472 16.6095 0 13.0622 0 8.70189C0 4.34162 3.5472 0.79425 7.90726 0.79425C12.2673 0.79425 15.8145 4.34162 15.8145 8.70189C15.8145 13.0622 12.2673 16.6095 7.90726 16.6095ZM7.90726 2.37578C4.41937 2.37578 1.58145 5.21383 1.58145 8.70189C1.58145 12.1899 4.41937 15.028 7.90726 15.028C11.3952 15.028 14.2331 12.1899 14.2331 8.70189C14.2331 5.21383 11.3959 2.37578 7.90726 2.37578Z" fill="white"/>
</svg>
