<svg width="24" height="24" viewBox="0 0 24 24" fill="none" xmlns="http://www.w3.org/2000/svg">
<path d="M12 0C5.4 0 0 5.4 0 12C0 18.6 5.4 24 12 24C18.6 24 24 18.6 24 12C24 5.4 18.6 0 12 0ZM11.925 11.25C13.575 11.25 15 12.6 15 14.25C15 15.675 14.25 16.8 12.75 17.175V18C12.75 18.45 12.45 18.75 12 18.75C11.55 18.75 11.25 18.45 11.25 18V17.175C10.5 16.875 9 15.675 9 14.25C9 13.8 9.375 13.5 9.825 13.5C10.275 13.5 10.575 13.8 10.575 14.25C10.575 15.075 11.25 15.75 12.075 15.75C12.9 15.75 13.575 15.075 13.575 14.25C13.575 13.425 12.9 12.75 12.075 12.75C10.425 12.75 9.15 11.4 9.15 9.75C9.15 8.325 10.65 7.2 11.4 6.825V6C11.4 5.55 11.7 5.25 12.15 5.25C12.6 5.25 12.9 5.55 12.9 6V6.825C14.4 7.125 15.15 8.325 15.15 9.75C15.15 10.2 14.85 10.5 14.475 10.5C14.1 10.5 13.725 10.2 13.725 9.75C13.725 8.925 13.05 8.25 12.225 8.25C11.4 8.25 10.725 8.925 10.725 9.75C10.725 10.575 11.1 11.25 11.925 11.25Z" fill="#DA8484"/>
</svg>
