<svg width="40" height="41" viewBox="0 0 40 41" fill="none" xmlns="http://www.w3.org/2000/svg">
<path d="M20 0.302399C8.9551 0.302399 0 9.2575 0 20.3024C0 31.3473 8.9551 40.3024 20 40.3024C31.0449 40.3024 40 31.3473 40 20.3024C40 9.2575 31.0449 0.302399 20 0.302399ZM20 6.28199C23.6531 6.28199 26.6163 9.24526 26.6163 12.8983C26.6163 16.5514 23.6531 19.5146 20 19.5146C16.3469 19.5146 13.3837 16.5514 13.3837 12.8983C13.3837 9.24526 16.3469 6.28199 20 6.28199ZM19.9959 35.0738C16.351 35.0738 13.0122 33.7473 10.4367 31.5514C9.80816 31.0167 9.44898 30.233 9.44898 29.4085C9.44898 25.7024 12.449 22.7391 16.1551 22.7391H23.8531C27.5592 22.7391 30.5469 25.7024 30.5469 29.4085C30.5469 30.233 30.1878 31.0167 29.5592 31.5514C26.9796 33.7432 23.6408 35.0738 19.9959 35.0738Z" fill="#6851AC"/>
</svg>
