<svg width="26" height="26" viewBox="0 0 26 26" fill="none" xmlns="http://www.w3.org/2000/svg">
<path d="M1.04248 25.0644L2.72623 18.9175C1.68748 17.1187 1.14123 15.0775 1.14186 12.9869C1.14498 6.44625 6.46748 1.125 13.0087 1.125C16.1831 1.12625 19.1618 2.36187 21.4025 4.60375C23.6425 6.84625 24.8762 9.82624 24.875 12.9962C24.8725 19.5369 19.5487 24.8587 13.0087 24.8587H13.0037C11.0181 24.8581 9.06623 24.36 7.3331 23.4144L1.04248 25.0644Z" fill="#C5FFCA"/>
<path d="M1.04245 25.3769C0.959951 25.3769 0.879951 25.3444 0.820576 25.2844C0.742451 25.205 0.711827 25.0894 0.741202 24.9825L2.39058 18.96C1.36808 17.1437 0.828701 15.0812 0.829951 12.9875C0.832451 6.27375 6.29557 0.8125 13.0087 0.8125C16.2649 0.81375 19.3243 2.08187 21.6237 4.38312C23.9231 6.685 25.1887 9.74374 25.1874 12.9962C25.1849 19.7094 19.7212 25.1712 13.0087 25.1712C11.0156 25.1706 9.0437 24.6787 7.2937 23.7481L1.12183 25.3662C1.09558 25.3737 1.06933 25.3769 1.04245 25.3769Z" fill="#C5FFCA"/>
<path d="M19.985 6.01991C18.1225 4.15616 15.6469 3.12929 13.0119 3.12866C7.57189 3.12866 3.14752 7.55116 3.14502 12.9874C3.1444 14.8505 3.66564 16.6643 4.65314 18.2349L4.88814 18.608L3.89127 22.2461L7.62439 21.2674L7.98502 21.4811C9.49877 22.3799 11.235 22.8549 13.005 22.8555H13.0088C18.445 22.8555 22.8694 18.4324 22.8713 12.9955C22.8719 10.3612 21.8475 7.88366 19.985 6.01991Z" fill="#0D5715"/>
<path fill-rule="evenodd" clip-rule="evenodd" d="M10.0424 8.02818C9.82053 7.53443 9.58678 7.52443 9.3749 7.51568C9.20178 7.50818 9.00428 7.5088 8.80678 7.5088C8.60928 7.5088 8.28803 7.58318 8.01615 7.88005C7.74428 8.17693 6.97803 8.8938 6.97803 10.3526C6.97803 11.8113 8.04053 13.2213 8.18865 13.4188C8.33678 13.6163 10.2399 16.7057 13.2536 17.8944C15.758 18.8819 16.268 18.6857 16.8118 18.6363C17.3555 18.5869 18.5661 17.9194 18.813 17.2269C19.0599 16.5344 19.0599 15.9413 18.9861 15.8175C18.9118 15.6938 18.7143 15.62 18.418 15.4713C18.1218 15.3225 16.6636 14.6057 16.3918 14.5069C16.1199 14.4082 15.9224 14.3588 15.7243 14.6557C15.5268 14.9519 14.9586 15.62 14.7855 15.8175C14.6124 16.0157 14.4393 16.0407 14.143 15.8919C13.8468 15.7432 12.8918 15.4307 11.7586 14.4207C10.8774 13.635 10.2824 12.6644 10.1093 12.3675C9.93615 12.0713 10.0905 11.9107 10.2393 11.7625C10.3724 11.6294 10.5355 11.4163 10.6843 11.2432C10.8324 11.07 10.8818 10.9463 10.9805 10.7488C11.0793 10.5507 11.0299 10.3775 10.9555 10.2294C10.8824 10.0807 10.3062 8.61443 10.0424 8.02818Z" fill="#C5FFCA"/>
</svg>
